<svg
  version="1.2"
  xmlns="http://www.w3.org/2000/svg"
  viewBox="0 0 621 671"
  width="74"
  height="80"
>
  <style>
    .s0 {
      fill: #231f20;
    }
    .s1 {
      fill: #00ab4f;
    }
    .s2 {
      fill: #ff2e17;
    }
  </style>
  <path
    fill-rule="evenodd"
    class="s0"
    d="m472.7 242.1c84.1 10.9 148.3 46.1 148.3 126.9c0 53.8-29.6 95.5-78 121.9c-42.3 22.5-98.3 31.9-163.7 31.9h-189v-23.1c70.4-5 75.9-10.4 75.9-78v-319.2c0-68.6-3.9-73.6-68.7-78v-24.2h217.5c62.7 0 98.4 9.4 125.8 28.1c28.6 19.2 46.2 54.3 46.2 91.7c0 76.4-66.5 107.7-114.3 119.2zm-94.5-10.4c89 0 126.4-34.6 126.4-101.1c0-57.7-32.4-103.3-107.2-103.3c-19.7 0-38.4 4.4-45.6 9.9c-7.1 5-9.3 14.3-9.3 39v155.5zm-35.7 187.9c0 59.8 15.9 75.2 67.6 74.7c64.3-1.1 122.5-34.1 122.5-117.1c0-80.7-56-117.5-156-117.5h-34.1z"
  />
  <path
    class="s0"
    d="m0.8 121.2c3.9-40.1 7.7-91.2 8.8-120.8h368.1v24.1c-63.2 4.4-70.3 8.8-70.3 79.7v313.7c0 71.4 7.1 76.9 72.5 81.8v23.1h-231.3v-23.1c75.3-5.5 82.4-10.4 82.4-81.8v-140.1h-82.4c-75.3 0-79.7 8.8-89.5 64.8h-24.8v-158.2h24.2c10.4 52.2 14.8 59.9 90.1 59.9h82.4v-187.9c0-24.2-2.2-26.4-28-26.4h-59.9c-61 0-78.6 7.2-92.8 29.7c-12.1 15.9-17.6 33.5-24.7 65.4z"
  />
  <path
    fill-rule="evenodd"
    class="s0"
    d="m50.8 627c12.7 1.7 22.4 7 22.4 19.2c0 8.1-4.5 14.4-11.8 18.4c-6.4 3.4-14.9 4.8-24.7 4.8h-28.6v-3.4c10.6-0.8 11.5-1.6 11.5-11.8v-48.2c0-10.4-0.6-11.2-10.4-11.8v-3.7h32.9c9.4 0 14.8 1.4 19 4.3c4.3 2.9 6.9 8.2 6.9 13.8c0 11.6-10 16.3-17.2 18zm-14.3-1.6c13.4 0 19.1-5.2 19.1-15.2c0-8.7-4.9-15.6-16.2-15.6c-3 0-5.8 0.6-6.9 1.5c-1.1 0.7-1.4 2.1-1.4 5.9v23.4zm-5.4 28.4c0 9.1 2.4 11.4 10.2 11.3c9.7-0.2 18.5-5.1 18.5-17.7c0-12.2-8.4-17.7-23.5-17.7h-5.2z"
  />
  <path
    class="s0"
    d="m144.2 649.9c-0.9 4.1-3.4 15.8-4.7 19.5h-57.2v-3.4c10.6-0.8 11.7-1.6 11.7-12.2v-47.7c0-10.5-0.9-11.3-11.2-11.9v-3.7h33.6v3.7c-9.7 0.6-10.9 1.3-10.9 11.9v47.2c0 6.7 0.6 9 2.9 10.3c2.4 1.3 6.6 1.5 11.5 1.5c6.6 0 11-0.7 13.8-3.9c2.3-2.3 4.6-6.3 6.7-12.1z"
  />
  <path
    class="s0"
    d="m236 594.2c-7.2 0.4-10.3 2.2-10.8 7.2c-0.4 3.4-0.8 8.3-0.8 19.3v9.5c0 14.4-2.3 24.9-9.5 32.4c-5.8 5.8-14.3 8.5-22.8 8.5c-7.7 0-14.9-1.7-20.4-5.9c-7.7-5.6-11.3-14.8-11.3-29.4v-29c0-11.2-1.1-11.8-10.9-12.6v-3.7h33.3v3.7c-9.7 0.6-10.8 1.3-10.8 12.6v26.5c0 20 8.4 30.9 23.5 30.9c17.6 0 23.6-14.1 23.6-34.3v-9.2c0-11-0.3-15.8-1-19.6c-0.6-4.7-3.5-6.3-12-6.9v-3.7h29.9z"
  />
  <path
    class="s0"
    d="m307.3 649.8c-0.8 4.5-3.2 15.7-4.3 19.6h-60.9v-3.4c11.2-0.9 12.3-2 12.3-12v-47.5c0-11.2-1.1-11.5-10.7-12.3v-3.7h56.2c0.2 3.2 0.7 11.2 1.2 18l-3.8 0.5c-1.2-5-2.5-7.8-4.1-10.5c-1.8-2.7-5.2-3.5-13.8-3.5h-9.2c-4.1 0-4.3 0.3-4.3 4v27.2h11.4c11.1 0 11.9-1 13.5-9.2h3.7v23.8h-3.7c-1.8-8.9-2.7-9.5-13.5-9.5h-11.4v22.3c0 5.7 0.7 8.5 3 10c2.4 1.4 7 1.4 12.7 1.4c9 0 12.8-0.9 15.6-4c2.1-2.6 4.5-6.8 6.3-11.7z"
  />
  <path
    class="s0"
    d="m401.5 609.4c-1.1-4.8-2-7.5-3.8-9.9c-2.1-3.4-4.8-4.5-14-4.5h-9.1c-3.9 0-4.2 0.3-4.2 4v28.4h12.5c11.3 0 12-1.2 13.6-9.1h3.6v23.9h-3.7c-1.5-8.4-2.2-9.8-13.5-9.8h-12.5v21.2c0 10.8 1.1 11.5 12.5 12.4v3.4h-35v-3.4c9.9-0.8 11-1.6 11-12.4v-47.4c0-10.7-1.1-11.4-10.6-12v-3.7h55.6c0.1 4.5 0.7 12.2 1.3 18.3z"
  />
  <path
    class="s0"
    d="m414.4 669.4v-3.4c10.1-0.8 11.2-1.5 11.2-12v-47.9c0-10.5-1.1-11.3-11.2-11.9v-3.7h33.8v3.7c-10 0.6-11.1 1.4-11.1 11.9v47.9c0 10.5 1.1 11.2 11.1 12v3.4z"
  />
  <path
    class="s0"
    d="m539.8 594.2c-8.4 0.9-10.2 2.2-15.1 13.3c-3.4 7.9-16.3 38.1-25.9 63.3h-4.3c-8.4-22.3-18.9-48.4-25.9-65.7c-3.7-9-5.8-10.3-13.2-10.8v-3.8h31.6v3.7c-9.1 0.9-9.1 2-7.2 7.5c3.4 8.7 12.7 32.3 20.5 51.8h0.2c6.8-16.4 15.5-38.6 19.3-49.8c2.5-7.1 1.9-8.4-8.3-9.5v-3.7h28.3z"
  />
  <path
    class="s0"
    d="m610.7 649.8c-0.9 4.5-3.3 15.7-4.4 19.6h-60.9v-3.4c11.2-0.9 12.3-2 12.3-12v-47.5c0-11.2-1.1-11.5-10.7-12.3v-3.7h56.3c0.1 3.2 0.6 11.2 1.1 18l-3.8 0.5c-1.1-5-2.5-7.8-4-10.5c-1.9-2.7-5.3-3.5-13.8-3.5h-9.2c-4.1 0-4.3 0.3-4.3 4v27.2h11.3c11.1 0 12-1 13.5-9.2h3.8v23.8h-3.8c-1.7-8.9-2.6-9.5-13.5-9.5h-11.3v22.3c0 5.7 0.6 8.5 2.9 10c2.5 1.4 7.1 1.4 12.7 1.4c9.1 0 12.8-0.9 15.6-4c2.2-2.6 4.5-6.8 6.3-11.7z"
  />
  <path class="s1" d="m299 337.4h-22.6v-336.9h22.6z" />
  <path class="s2" d="m299 522.7h-22.6v-393.4h22.6z" />
</svg>